<?xml version="1.0" encoding="UTF-8"?>
<svg xmlns="http://www.w3.org/2000/svg" xmlns:xlink="http://www.w3.org/1999/xlink" width="347.84pt" height="232.1pt" viewBox="0 0 347.84 232.1" version="1.1">
<defs>
<clipPath id="clip1">
  <path d="M 172 0 L 347.839844 0 L 347.839844 232.101563 L 172 232.101563 Z M 172 0 "/>
</clipPath>
</defs>
<g id="surface1">
<path style=" stroke:none;fill-rule:nonzero;fill:rgb(13.699341%,12.199402%,12.5%);fill-opacity:1;" d="M 13.058594 49.164063 C 13.058594 49.164063 -7.757813 115.261719 3.171875 193.851563 L 30.753906 213.625 C 30.753906 213.625 47.410156 224.039063 63.023438 209.984375 C 63.023438 209.984375 97.894531 178.234375 131.722656 131.394531 C 131.722656 131.394531 112.988281 187.085938 112.988281 218.308594 C 112.988281 218.308594 111.945313 231.320313 122.355469 231.320313 L 141.089844 230.800781 C 141.089844 230.800781 156.703125 230.28125 154.101563 214.667969 C 154.101563 214.667969 143.171875 129.3125 180.644531 103.292969 C 180.644531 103.292969 191.574219 97.046875 181.6875 86.636719 C 181.6875 86.636719 174.398438 71.542969 128.078125 75.1875 C 81.757813 78.828125 78.117188 77.789063 78.117188 77.789063 C 78.117188 77.789063 65.625 74.144531 65.625 88.199219 C 65.625 102.25 86.964844 125.148438 122.875 105.371094 L 59.902344 163.144531 C 59.902344 163.144531 42.207031 178.753906 41.164063 155.335938 C 40.125 131.917969 40.644531 52.285156 58.339844 51.246094 C 76.035156 50.203125 158.265625 46.5625 168.15625 49.164063 C 178.042969 51.765625 199.382813 58.011719 191.574219 32.511719 C 183.765625 7.007813 167.632813 12.210938 167.632813 12.210938 C 167.632813 12.210938 77.597656 14.8125 47.410156 14.292969 C 47.410156 14.292969 27.632813 4.40625 14.621094 18.457031 C -0.472656 34.589844 13.058594 49.164063 13.058594 49.164063 "/>
<g clip-path="url(#clip1)" clip-rule="nonzero">
<path style=" stroke:none;fill-rule:nonzero;fill:rgb(13.699341%,12.199402%,12.5%);fill-opacity:1;" d="M 304.546875 123.394531 C 304.546875 123.394531 324.105469 68.101563 333.882813 53.433594 C 333.882813 53.433594 340.277344 41.023438 324.105469 34.253906 C 324.105469 34.253906 315.453125 30.113281 300.785156 27.105469 C 300.785156 27.105469 291.382813 23.34375 290.628906 37.636719 C 289.878906 51.929688 269.570313 100.824219 265.808594 109.476563 C 262.042969 118.128906 258.660156 131.292969 235.714844 129.789063 L 276.714844 17.324219 C 276.714844 17.324219 283.859375 1.152344 266.933594 0.777344 L 250.007813 0.0234375 C 250.007813 0.0234375 237.972656 -1.105469 234.210938 12.8125 L 195.09375 119.257813 C 195.09375 119.257813 190.71875 132.691406 182.066406 135.703125 C 182.066406 135.703125 167.453125 139.621094 174.40625 154.613281 C 182.699219 172.488281 201.488281 180.941406 218.414063 172.292969 C 218.414063 172.292969 239.097656 159.878906 246.246094 159.878906 C 246.246094 159.878906 236.84375 202.378906 237.972656 213.664063 C 239.101563 224.945313 243.988281 231.34375 259.789063 231.71875 C 275.585938 232.09375 276.714844 232.09375 276.714844 232.09375 C 276.714844 232.09375 286.117188 232.847656 284.238281 218.179688 C 282.355469 203.507813 283.859375 186.207031 286.871094 174.546875 C 289.878906 162.886719 295.144531 148.21875 295.144531 148.21875 L 339.527344 149.347656 C 339.527344 149.347656 348.175781 150.476563 347.800781 140.320313 C 347.800781 140.320313 348.550781 135.054688 343.664063 131.292969 L 326.738281 115.496094 C 326.738281 115.496094 321.09375 110.980469 316.582031 115.496094 C 316.582031 115.496094 312.613281 122.136719 304.546875 123.394531 "/>
</g>
<path style=" stroke:none;fill-rule:nonzero;fill:rgb(13.699341%,12.199402%,12.5%);fill-opacity:1;" d="M 300.363281 221.128906 L 301.632813 221.128906 C 303.078125 221.128906 304.304688 220.605469 304.304688 219.246094 C 304.304688 218.28125 303.601563 217.320313 301.632813 217.320313 C 301.0625 217.320313 300.667969 217.363281 300.363281 217.40625 Z M 300.363281 227.21875 L 298.609375 227.21875 L 298.609375 216.226563 C 299.53125 216.09375 300.40625 215.960938 301.71875 215.960938 C 303.382813 215.960938 304.480469 216.3125 305.136719 216.792969 C 305.792969 217.277344 306.144531 218.019531 306.144531 219.070313 C 306.144531 220.515625 305.179688 221.394531 303.996094 221.742188 L 303.996094 221.832031 C 304.960938 222.007813 305.617188 222.882813 305.835938 224.5 C 306.097656 226.210938 306.359375 226.867188 306.535156 227.21875 L 304.699219 227.21875 C 304.433594 226.867188 304.171875 225.859375 303.953125 224.414063 C 303.691406 223.011719 302.988281 222.488281 301.589844 222.488281 L 300.363281 222.488281 Z M 302.203125 213.160156 C 297.867188 213.160156 294.320313 216.882813 294.320313 221.480469 C 294.320313 226.167969 297.867188 229.847656 302.246094 229.847656 C 306.625 229.886719 310.128906 226.167969 310.128906 221.523438 C 310.128906 216.882813 306.625 213.160156 302.246094 213.160156 Z M 302.246094 211.628906 C 307.632813 211.628906 311.921875 216.007813 311.921875 221.480469 C 311.921875 227.042969 307.632813 231.378906 302.203125 231.378906 C 296.816406 231.378906 292.433594 227.042969 292.433594 221.480469 C 292.433594 216.007813 296.816406 211.628906 302.203125 211.628906 L 302.246094 211.628906 "/>
</g>
</svg>
